PathFileType	4	(X/Y/Z)	s10c0403.trc
DataRate	CameraRate	NumFrames	NumMarkers	Units	OrigDataRate	OrigDataStartFrame	OrigNumFrames
200	200	5	49	mm	200	750	2000
Frame#	Time	racr			lacr			c7			jug			rlel			rdr			llel			ldr			s2			lic			ric			lasi			rasi			rpsi			lpsi			rgt			lgt			rth1			rth2			rth3			rth4			rlfc			rmfc			rsh1			rsh2			rsh3			rsh4			rlmal			rmmal			rcal			rtoe			rmt5			lth1			lth2			lth4			lth3			llfc			lmfc			llmal			lcal			lmt5			lsh1			lsh2			lsh3			lsh4			ltoe			SBIKE			LBIKE			RBIKE			
		X1	Y1	Z1	X2	Y2	Z2	X3	Y3	Z3	X4	Y4	Z4	X5	Y5	Z5	X6	Y6	Z6	X7	Y7	Z7	X8	Y8	Z8	X9	Y9	Z9	X10	Y10	Z10	X11	Y11	Z11	X12	Y12	Z12	X13	Y13	Z13	X14	Y14	Z14	X15	Y15	Z15	X16	Y16	Z16	X17	Y17	Z17	X18	Y18	Z18	X19	Y19	Z19	X20	Y20	Z20	X21	Y21	Z21	X22	Y22	Z22	X23	Y23	Z23	X24	Y24	Z24	X25	Y25	Z25	X26	Y26	Z26	X27	Y27	Z27	X28	Y28	Z28	X29	Y29	Z29	X30	Y30	Z30	X31	Y31	Z31	X32	Y32	Z32	X33	Y33	Z33	X34	Y34	Z34	X35	Y35	Z35	X36	Y36	Z36	X37	Y37	Z37	X38	Y38	Z38	X39	Y39	Z39	X40	Y40	Z40	X41	Y41	Z41	X42	Y42	Z42	X43	Y43	Z43	X44	Y44	Z44	X45	Y45	Z45	X46	Y46	Z46	X47	Y47	Z47	X48	Y48	Z48	X49	Y49	Z49	
750	3.7500	628.767062	1363.491052	-108.786087	671.030844	1333.677575	-404.182381	632.356582	1367.305914	-253.817238	635.003760	1219.856568	-240.395477	555.835282	1110.527686	-4.957360	625.160967	906.954229	-42.446501	552.286772	1095.298798	-536.237437	625.735039	911.498235	-449.210677	121.388027	1144.724930	-178.955459	251.477761	1150.517516	-354.971071	329.147985	1139.743544	-94.395709	274.618055	1062.219880	-345.595671	322.889308	1057.307143	-96.771497	182.315414	1196.225745	-132.876744	158.122370	1207.770003	-243.054016	217.542371	1036.568014	-11.713985	155.500388	1032.788245	-387.091868	238.829723	895.798976	1.334906	267.429200	814.936551	-21.116151	252.661457	731.189362	-28.381181	302.208444	821.260667	-31.583622	261.370472	625.301598	-43.193147	242.242075	619.503690	-159.152611	172.674164	546.443443	-14.505095	149.534692	461.970878	-27.562535	88.309371	400.973980	-35.198327	179.059806	448.257931	-48.864471	42.961288	317.321245	-48.946825	65.157872	316.395771	-128.803929	-2.184777	342.854855	-97.192727	137.470817	143.199187	-103.206111	67.067965	187.790529	-38.636546	257.777710	956.963519	-411.529751	344.401405	947.899121	-410.719701	357.655712	981.347618	-402.440547	415.469924	895.320841	-416.373182	515.842030	858.809306	-409.938294	535.658572	840.850552	-282.874789	247.297316	582.554809	-390.054182	185.994397	580.965426	-345.733788	296.457223	441.501620	-403.704227	427.597524	779.665402	-429.256430	391.216599	700.405893	-418.679780	316.681863	651.479259	-409.472841	416.402549	681.433411	-396.923996	374.443682	424.901960	-350.838542	-217.575204	831.527380	-214.229811	-103.927575	80.735600	-418.441440	-103.920973	80.736045	-18.304160	
751	3.7550	630.382523	1363.360570	-109.376125	671.018139	1331.903725	-404.672610	633.182362	1367.030847	-254.345939	634.480622	1219.034158	-240.006855	557.330921	1111.153416	-4.047479	625.199745	906.955275	-42.404441	551.127014	1094.557623	-537.294833	625.554515	911.141555	-449.583943	120.828494	1146.482011	-182.201854	252.300203	1151.881273	-355.608681	328.401310	1142.439450	-93.015202	275.908154	1063.359479	-346.126536	321.854367	1060.090609	-96.646675	181.119523	1198.403165	-135.829692	157.947047	1209.673889	-246.077959	216.250064	1040.104713	-13.312300	155.763613	1033.130905	-388.910594	240.012385	897.727501	-0.249814	270.754437	817.613607	-22.266990	258.015535	733.509736	-28.816780	305.260014	824.751101	-32.983836	268.404105	627.486584	-42.880277	250.789898	620.919971	-158.828981	177.348137	550.955806	-14.533636	152.188910	467.039116	-27.492861	89.724767	407.690178	-35.263777	181.597354	452.529188	-48.522382	42.011632	325.045961	-49.050755	65.392649	323.463984	-128.960411	-1.619368	352.143401	-97.558276	129.259241	146.979637	-102.990189	60.763134	194.586474	-38.794678	255.726600	954.963800	-412.309511	342.250477	944.836592	-411.798385	355.958436	978.333880	-404.144770	412.549982	891.238694	-416.767196	513.278496	853.241167	-409.371811	532.372972	837.316914	-282.738889	248.278883	573.016585	-390.989736	186.558873	569.104492	-346.536549	302.883754	434.606208	-404.267077	425.149646	773.918112	-429.030789	390.022918	693.901938	-419.250176	316.291676	643.860874	-410.673086	415.501316	675.258412	-397.481928	381.501723	421.461195	-351.194677	-217.535972	831.524490	-214.276387	-103.908791	80.741172	-418.457865	-103.907365	80.739529	-18.317231	
752	3.7600	632.011718	1363.180278	-109.691011	671.005184	1330.149462	-404.867622	634.100917	1366.877628	-254.827928	632.678193	1218.861707	-239.797627	559.054454	1111.588087	-2.945593	625.201879	906.984168	-42.416597	550.020652	1093.827895	-538.163464	625.747584	910.075059	-448.187353	120.119219	1148.346379	-185.690346	253.007528	1153.112674	-356.415062	326.790889	1144.963813	-92.833752	277.332331	1065.122536	-346.880219	320.739345	1062.886810	-96.310948	179.886780	1200.546901	-138.938602	158.497619	1211.492504	-249.479728	214.666529	1043.012728	-15.472022	155.849192	1033.287852	-390.466443	241.452125	899.750151	-1.713245	274.367602	820.246724	-23.395646	263.929887	735.915843	-29.080883	308.536924	828.381626	-34.398867	275.980513	629.599489	-42.645789	259.718665	622.167594	-158.550757	182.724336	555.557609	-14.475348	155.515980	472.174414	-27.369594	91.546230	414.582466	-35.338060	184.690572	456.938817	-48.188603	41.428000	332.764159	-49.081327	65.395560	330.875232	-129.061725	-0.800650	361.634899	-97.920552	121.319756	151.277805	-102.971815	54.865869	201.696254	-38.970274	253.639889	952.814835	-413.094487	339.978645	941.294890	-412.694181	354.235377	974.739591	-405.765029	409.408571	886.629104	-416.817085	510.488006	846.985745	-409.150972	527.804626	832.210404	-283.215064	248.889940	562.759069	-392.061864	186.992449	556.423170	-347.284548	308.741300	426.984525	-404.646425	422.352357	766.884424	-428.494902	388.431249	686.294528	-419.523293	315.629667	634.919308	-411.299186	414.143134	668.097551	-397.710711	387.852881	417.549241	-351.401626	-217.505100	831.505583	-214.311380	-103.912356	80.718655	-418.453725	-103.898036	80.747933	-18.303609	
753	3.7650	633.622508	1362.977013	-109.776296	670.972056	1328.558161	-404.825556	634.952997	1366.785301	-255.118606	631.181773	1218.781850	-239.448677	560.378380	1111.835910	-1.751265	625.175366	906.975029	-42.529904	549.023877	1093.181837	-538.856628	625.596234	909.904385	-448.688826	119.354512	1150.155180	-189.266231	253.657809	1154.222944	-357.589641	325.125332	1147.172297	-92.402035	278.793168	1066.886196	-347.517642	319.562272	1065.285961	-96.198245	178.671718	1202.384395	-142.076859	159.066488	1212.042979	-252.192347	213.249178	1045.613097	-17.482694	155.894224	1033.422907	-392.233612	242.960032	901.579194	-3.078286	277.770687	822.844404	-24.654933	270.190923	738.191766	-29.502278	311.841102	831.993062	-35.730089	283.905261	631.748472	-42.627401	268.793602	623.599751	-158.462299	188.805803	559.982432	-14.410263	159.388735	477.472141	-27.172683	94.011307	421.535939	-35.235130	188.183785	461.431738	-47.990020	40.977396	340.957963	-49.006276	65.255289	338.593598	-129.116991	0.207928	371.253763	-98.168665	113.818693	156.216474	-102.651898	49.406504	209.304766	-38.948248	251.297596	950.580717	-414.258505	337.433440	937.683939	-413.680634	352.415437	970.903690	-407.277586	406.017362	881.646551	-417.136790	507.422240	839.984771	-408.892590	523.602347	826.686886	-283.340260	249.268717	551.615064	-392.326569	187.016064	543.455486	-347.809912	314.118270	419.035700	-404.983909	419.090481	758.967112	-428.242253	386.522263	677.345006	-418.988210	314.722191	624.990703	-411.858617	412.551326	660.070301	-397.501825	393.548274	413.076771	-351.568922	-217.600016	831.349891	-214.229532	-103.906012	80.712372	-418.457580	-103.892348	80.762710	-18.313868	
754	3.7700	635.106476	1362.728295	-109.597992	670.849390	1327.112922	-404.484841	635.726261	1366.768814	-255.239797	629.523171	1218.804392	-239.026447	561.567783	1112.062363	-0.479937	625.193614	906.993914	-42.581445	548.033379	1092.590749	-539.299846	625.487999	909.804390	-449.170473	118.303660	1152.123999	-192.807386	254.246729	1155.111763	-358.967564	323.346750	1149.354394	-91.818407	280.041502	1068.560058	-347.625568	318.372169	1067.590875	-95.847359	177.516944	1204.175133	-145.334553	159.248507	1213.442078	-255.581182	211.708236	1048.361134	-19.188624	155.723860	1033.488854	-393.807923	244.586737	903.295507	-4.343935	281.691139	825.469205	-25.650180	276.612632	740.592668	-29.949969	315.529665	835.622566	-36.922169	292.132700	633.979453	-42.718516	277.659047	625.321116	-158.504878	195.385699	564.583735	-14.256649	163.724085	482.876666	-27.078618	96.937775	428.617046	-34.980736	192.086687	465.943379	-48.143907	40.817304	349.052015	-48.938044	65.060500	346.583104	-129.135348	2.442016	382.267887	-95.824381	105.695086	161.037857	-103.091665	44.258231	217.065266	-38.977168	249.036398	948.394339	-415.300265	334.863998	933.811830	-414.663145	350.550898	966.599982	-408.642876	402.421609	876.326629	-417.207981	504.034777	832.335768	-408.699908	519.232110	820.345531	-283.533481	249.453216	539.804149	-392.505492	186.665201	529.632517	-347.839937	318.886816	410.574027	-405.202847	415.509869	749.935708	-428.015006	384.616474	668.095996	-419.874840	313.661487	614.264422	-412.262220	410.641396	651.167805	-397.155416	398.490329	408.072498	-351.747177	-217.564640	831.317984	-214.284038	-103.890354	80.725010	-418.449069	-103.853111	80.774701	-18.297534	
